<svg version="1.0" xmlns="http://www.w3.org/2000/svg"
 width="40.000000pt" height="40.000000pt" viewBox="0 0 40.000000 40.000000"
 preserveAspectRatio="xMidYMid meet">
<g transform="translate(0.000000,40.000000) scale(0.002943,-0.003899)"
fill="#000000" stroke="none">
<path d="M12410 8991 c-9 -18 -12 -19 -38 -5 -39 20 -49 18 -103 -22 -27 -19
-53 -33 -58 -30 -17 11 -42 -6 -36 -24 4 -12 -1 -19 -15 -23 -14 -4 -20 -13
-20 -32 0 -25 3 -27 34 -23 32 4 33 3 25 -21 -6 -13 -7 -31 -4 -39 9 -24 -24
-53 -46 -42 -19 11 -22 8 -47 -39 -10 -20 -10 -27 1 -39 12 -11 19 -12 38 -2
23 12 23 12 8 -6 -9 -10 -14 -25 -12 -31 3 -8 -4 -13 -19 -13 -13 0 -30 -6
-36 -12 -7 -7 -25 -14 -40 -15 -15 -1 -42 -5 -59 -9 -28 -5 -33 -3 -33 12 0
15 -7 19 -32 18 -18 0 -34 -6 -36 -13 -3 -8 4 -10 22 -5 15 3 26 2 26 -4 0
-21 -31 -33 -101 -37 -110 -7 -150 -15 -195 -36 -22 -10 -46 -19 -53 -19 -8 0
-37 -13 -65 -29 -54 -31 -94 -32 -117 -5 -10 12 -14 11 -23 -7 -14 -28 -103
-78 -139 -79 -15 0 -50 -11 -77 -25 -40 -20 -53 -34 -72 -76 -23 -50 -23 -50
-63 -46 -26 2 -74 -6 -135 -25 -52 -16 -108 -28 -125 -26 -28 3 -30 6 -32 45
-5 88 -40 151 -134 244 -61 60 -97 105 -119 150 -18 35 -46 79 -61 97 -16 18
-29 36 -29 40 0 12 -193 14 -224 2 -52 -19 -79 36 -36 75 11 10 20 24 20 32 0
15 -26 18 -35 3 -3 -5 -1 -10 5 -10 6 0 2 -12 -9 -26 -11 -14 -17 -32 -14 -40
8 -21 -11 -17 -32 6 -15 16 -15 20 -3 20 8 0 23 9 33 20 20 22 8 28 -15 8 -8
-7 -7 -4 3 8 10 12 15 28 11 38 -7 18 -20 21 -29 6 -3 -5 -13 -10 -21 -10 -11
0 -13 6 -9 20 3 11 2 20 -3 20 -6 0 -12 -15 -14 -34 -3 -26 4 -46 30 -85 19
-28 38 -51 43 -51 18 0 -4 -29 -39 -52 -47 -30 -188 -95 -330 -152 -107 -43
-260 -84 -572 -155 -47 -11 -107 -22 -135 -26 -27 -4 -70 -13 -95 -20 -25 -8
-81 -19 -125 -25 -44 -6 -123 -26 -175 -45 -75 -26 -117 -34 -201 -39 -174 -9
-359 -49 -477 -102 -29 -13 -57 -24 -63 -24 -5 0 -29 -9 -51 -20 -23 -11 -50
-17 -61 -14 -10 3 -51 -1 -90 -9 -123 -26 -172 -29 -243 -12 -72 17 -133 54
-177 110 -34 43 -117 202 -117 225 0 9 -7 25 -15 36 -22 30 -18 37 19 30 22
-4 48 -1 72 9 20 8 38 15 40 15 1 0 4 -21 6 -47 3 -44 5 -48 32 -53 16 -3 31
-11 34 -19 3 -10 -5 -12 -38 -6 -52 9 -47 -10 5 -19 19 -4 37 -12 41 -18 5 -7
0 -9 -14 -6 -12 4 -20 2 -16 -3 3 -5 0 -9 -5 -9 -6 0 -11 -5 -11 -12 0 -9 3
-9 12 0 7 7 28 12 48 12 19 0 51 4 70 10 39 11 54 -1 45 -38 -3 -13 -2 -21 3
-18 6 3 13 21 16 39 4 24 25 50 81 100 81 73 95 104 77 168 l-10 34 -1 -37
c-1 -42 -14 -49 -31 -18 -21 39 4 93 68 146 54 47 102 93 102 100 0 2 -7 1
-15 -2 -8 -4 -15 -9 -15 -13 0 -4 -27 -29 -60 -55 -78 -60 -101 -97 -98 -156
2 -34 8 -47 24 -55 20 -10 21 -13 8 -38 -26 -48 -129 -123 -189 -136 -62 -14
-75 -10 -75 23 0 16 -10 27 -34 39 -29 14 -35 22 -38 54 -3 37 -4 38 -38 36
-19 -1 -56 -3 -81 -3 -86 -2 -87 -8 -16 -151 74 -149 100 -186 171 -239 76
-57 148 -74 262 -59 49 6 121 13 159 16 39 3 75 8 80 13 6 4 40 17 77 29 36
12 72 29 79 37 7 8 18 13 25 10 7 -3 16 -1 19 4 4 6 17 10 31 10 13 0 24 4 24
9 0 14 224 52 340 57 115 5 155 14 245 51 33 13 98 29 145 35 47 5 121 19 164
29 44 10 92 19 106 19 15 0 29 3 33 6 3 4 24 8 45 9 22 2 48 8 58 13 11 6 108
31 217 57 108 26 199 51 202 55 3 4 22 11 42 15 21 3 70 21 108 39 39 19 111
51 160 72 90 38 175 90 175 107 0 5 6 7 13 4 6 -2 26 0 42 5 57 16 110 18 162
8 61 -13 87 -41 147 -155 23 -44 65 -101 114 -152 81 -84 112 -144 112 -215 0
-16 5 -39 11 -50 10 -19 17 -20 82 -13 38 3 92 15 118 26 35 13 62 17 93 13
55 -8 71 1 99 56 25 51 73 87 126 95 61 10 114 29 140 51 20 16 36 20 68 16
52 -5 59 -26 30 -84 -17 -32 -32 -47 -62 -58 -67 -25 -144 -80 -174 -124 -34
-49 -55 -119 -47 -152 9 -33 -20 -164 -42 -193 -19 -26 -120 -70 -161 -70 -17
-1 -40 16 -76 55 l-52 57 -112 9 c-125 10 -205 39 -237 85 -48 67 -98 111
-171 150 l-79 42 -80 -10 c-43 -6 -83 -14 -88 -20 -6 -5 -17 -9 -26 -9 -10 0
-35 -19 -58 -42 -22 -24 -70 -74 -106 -112 -36 -37 -78 -93 -92 -123 -15 -30
-33 -57 -40 -60 -16 -6 -35 -59 -28 -78 3 -8 -4 -24 -15 -36 -26 -28 -35 -76
-22 -112 15 -39 14 -47 -8 -47 -11 0 -36 -22 -59 -52 -30 -39 -52 -56 -81 -65
-47 -15 -128 -52 -191 -89 -75 -43 -85 -45 -295 -42 -16 0 -43 10 -60 23 -46
34 -124 65 -164 65 -20 0 -76 -14 -125 -32 -72 -26 -102 -44 -149 -87 -61 -57
-121 -136 -113 -149 2 -4 -8 -13 -22 -20 -20 -8 -39 -36 -70 -99 -23 -49 -60
-117 -82 -152 -22 -35 -38 -66 -35 -69 3 -3 -2 -14 -12 -24 -15 -17 -15 -19 2
-38 17 -19 17 -20 -6 -28 -13 -5 -57 -17 -98 -27 -68 -16 -79 -23 -124 -72
-28 -29 -57 -64 -66 -76 -27 -40 -75 -84 -132 -120 -30 -19 -61 -42 -68 -50
-7 -9 -36 -27 -64 -42 -29 -14 -64 -40 -78 -56 -36 -42 -111 -86 -155 -93 -50
-8 -83 -26 -106 -56 -18 -25 -96 -240 -123 -340 -13 -51 -13 -56 6 -87 11 -18
28 -33 37 -33 15 -1 15 -2 0 -11 -24 -14 -23 -52 3 -75 19 -17 37 -19 153 -19
167 1 179 7 313 156 55 63 135 149 177 192 43 42 74 82 71 87 -3 5 8 16 24 24
34 18 178 149 202 183 8 13 18 20 21 17 4 -3 44 32 90 79 78 80 186 169 236
196 12 7 20 17 16 23 -4 7 -3 8 4 4 6 -4 55 23 108 59 53 36 126 81 163 102
107 59 152 89 144 97 -4 4 0 4 9 1 9 -3 31 5 52 19 20 14 53 30 71 36 19 6 35
16 35 21 0 5 7 9 15 9 8 0 58 23 112 52 135 70 191 98 202 98 6 0 14 7 19 16
5 9 13 16 18 16 23 2 134 58 134 68 0 7 8 9 20 5 20 -6 130 36 161 62 8 7 24
13 33 13 10 0 30 6 44 14 15 7 48 24 75 36 26 13 52 29 58 37 6 7 18 13 25 13
8 0 22 4 32 9 9 5 85 42 167 82 83 39 161 80 174 90 13 11 30 19 38 19 8 0 67
23 131 51 64 28 157 66 207 86 269 105 321 127 328 139 4 8 21 14 37 14 26 0
70 15 122 41 10 5 25 9 33 9 9 0 33 9 55 20 22 11 46 20 55 20 8 0 34 8 58 18
23 10 62 26 87 35 99 35 296 109 312 118 10 5 26 9 36 9 9 0 26 6 37 13 18 13
99 46 250 102 144 54 585 225 632 246 29 12 49 27 46 32 -4 6 0 8 10 4 11 -4
17 -1 17 7 0 8 6 16 13 19 6 2 9 7 5 11 -3 4 -32 -4 -63 -19 -79 -36 -101 -37
-97 -5 1 19 0 22 -8 10 -5 -8 -7 -23 -4 -32 7 -23 -42 -47 -176 -88 -99 -30
-210 -71 -343 -126 -32 -13 -67 -24 -77 -24 -10 0 -21 -4 -24 -9 -3 -5 -18
-12 -33 -15 -16 -4 -46 -15 -68 -26 -69 -33 -135 -60 -193 -81 -32 -11 -66
-24 -77 -29 -11 -4 -51 -18 -90 -30 -38 -12 -106 -37 -150 -55 -44 -18 -125
-49 -180 -68 -55 -19 -143 -53 -195 -75 -52 -22 -140 -56 -195 -75 -55 -19
-120 -44 -145 -55 -25 -12 -97 -42 -160 -67 -63 -26 -137 -59 -165 -74 -27
-16 -77 -39 -110 -52 -33 -13 -71 -31 -84 -41 -13 -10 -32 -18 -42 -18 -10 0
-21 -5 -24 -11 -8 -12 -172 -92 -420 -204 -252 -114 -467 -219 -735 -357 -83
-43 -209 -117 -281 -164 -19 -13 -39 -24 -43 -24 -11 0 -262 -169 -328 -221
-31 -24 -89 -71 -129 -104 -103 -83 -534 -519 -636 -642 -98 -119 -106 -123
-260 -123 -114 0 -133 4 -133 31 0 29 36 42 99 36 45 -5 52 -4 34 5 -29 14
-29 28 -1 28 17 0 19 3 10 12 -10 10 -20 8 -47 -6 -24 -13 -45 -17 -71 -13
-54 9 -67 24 -61 72 7 46 70 266 94 326 16 42 54 69 96 69 29 0 93 25 102 40
4 6 22 17 40 24 22 10 37 24 41 40 3 14 11 26 16 26 5 0 21 9 35 20 14 11 33
20 42 20 10 0 27 13 39 29 12 16 42 39 67 52 46 23 121 97 205 203 46 59 48
59 175 90 85 21 117 34 113 49 -3 6 -19 13 -36 15 -37 4 -40 12 -11 31 17 10
19 15 9 21 -9 6 -5 17 18 46 17 22 54 86 84 143 58 114 76 133 108 113 23 -14
26 -5 6 23 -12 18 -10 26 20 72 45 70 118 125 214 162 43 17 84 31 91 31 25 0
156 -44 182 -62 15 -10 40 -27 57 -38 16 -11 32 -20 35 -20 3 0 1 9 -5 20 -15
29 13 27 33 -2 12 -18 16 -19 16 -7 1 14 16 17 89 21 75 4 94 8 142 36 102 58
149 82 164 82 44 0 96 34 127 81 26 42 35 48 55 43 29 -7 43 19 26 47 -17 27
-15 105 3 123 8 8 24 18 36 21 19 6 19 8 3 20 -17 12 -17 14 0 49 9 20 21 36
26 36 6 0 10 9 10 19 0 25 58 111 107 159 21 20 51 54 66 75 15 20 33 37 40
37 7 0 17 8 24 19 6 10 32 23 57 30 55 14 163 15 171 1 3 -5 24 -14 46 -20 29
-8 62 -33 130 -102 106 -108 142 -124 286 -132 52 -3 100 -9 108 -13 7 -5 32
-32 55 -62 l42 -53 49 5 c54 7 161 51 181 74 17 20 30 104 32 195 1 46 6 82
14 90 6 6 12 19 12 28 1 38 130 143 188 152 33 5 39 -1 22 -18 -7 -7 1 -10 25
-10 19 1 35 4 35 9 0 4 12 12 26 18 15 5 25 12 22 14 -3 3 -21 -2 -41 -10 -49
-20 -57 -19 -27 6 l25 20 -25 -7 c-24 -6 -24 -6 -9 12 23 27 41 88 34 116 -7
29 13 48 70 67 22 8 56 21 75 29 40 17 55 20 167 26 53 3 91 11 108 22 14 9
29 14 33 10 4 -4 -1 -12 -11 -17 -26 -15 -21 -32 6 -18 12 7 24 15 27 18 14
17 54 31 72 26 13 -5 24 -1 34 13 9 13 21 18 37 15 24 -5 44 18 32 37 -7 11
25 35 77 56 61 24 52 37 -9 14 -68 -25 -113 -34 -113 -21 0 6 6 8 14 5 20 -8
30 14 16 31 -15 18 -14 18 29 5 25 -7 42 -5 69 5 42 18 36 32 -7 17 -29 -10
-43 -1 -21 13 6 4 8 16 5 26 -4 12 0 31 10 46 22 33 7 52 -29 35 -23 -10 -36
-7 -36 9 0 3 10 9 21 12 16 4 20 11 16 26 -4 18 -1 20 17 15 14 -3 27 1 35 10
8 9 19 16 25 16 6 0 19 9 29 20 21 25 61 22 81 -5 14 -19 15 -19 27 8 14 31
32 31 37 0 2 -16 13 -22 47 -28 25 -3 47 -10 49 -14 6 -9 64 -6 129 7 27 5 57
8 67 5 10 -3 27 0 38 6 15 8 22 8 25 -2 3 -7 6 -5 6 5 1 9 9 21 18 27 10 5 15
12 11 16 -3 4 -24 -5 -46 -19 -25 -15 -43 -21 -49 -15 -6 6 -30 5 -64 -2 -72
-14 -129 -17 -135 -7 -3 4 -14 8 -26 8 -11 0 -33 14 -48 30 -33 35 -45 37 -60
11z"/>
<path d="M4103 8638 c-18 -29 -48 -88 -67 -131 -25 -56 -43 -82 -66 -95 -39
-22 -44 -40 -25 -86 18 -44 15 -52 -13 -37 -12 6 -37 11 -56 11 -34 0 -35 1
-24 20 17 26 -1 55 -33 55 -22 0 -24 3 -21 46 2 41 0 47 -25 58 -15 7 -53 15
-83 17 -41 2 -65 11 -97 33 -31 22 -43 26 -43 16 0 -21 73 -55 133 -62 77 -8
96 -24 95 -77 0 -38 -3 -43 -19 -39 -11 3 -36 -6 -59 -22 -22 -16 -42 -26 -43
-24 -2 2 -11 17 -21 33 -15 24 -23 28 -51 23 -28 -5 -39 0 -69 29 -39 38 -65
42 -119 19 -20 -8 -49 -15 -64 -15 -34 0 -63 -23 -92 -72 -21 -35 -55 -57 -68
-44 -3 3 -1 11 5 18 6 7 11 38 13 68 1 30 9 68 17 84 8 16 15 56 16 88 1 55 9
73 19 46 2 -7 8 -10 12 -5 8 7 -22 36 -37 37 -4 0 -7 -25 -7 -55 1 -36 -6 -69
-20 -97 -14 -30 -20 -59 -18 -95 3 -72 -14 -88 -51 -44 -38 46 -70 40 -100
-19 -20 -38 -22 -54 -17 -107 8 -78 2 -99 -35 -111 -21 -8 -31 -20 -39 -49 -6
-21 -11 -43 -11 -49 0 -6 -9 -23 -21 -38 -24 -31 -72 -35 -102 -8 -19 16 -20
16 -10 -3 9 -17 -2 -31 -78 -102 -96 -90 -107 -94 -191 -72 -37 10 -50 8 -98
-11 -110 -44 -127 -48 -205 -52 -88 -3 -261 24 -309 49 l-29 15 24 19 c19 14
22 22 13 35 -21 34 -39 39 -108 25 -37 -7 -81 -10 -99 -7 -49 9 -122 59 -157
107 -40 55 -54 107 -55 200 0 67 -3 80 -29 113 -15 21 -52 53 -81 72 -54 34
-95 77 -95 99 0 16 -69 94 -70 78 0 -6 4 -15 10 -18 10 -6 80 -121 80 -132 0
-3 -7 -2 -16 1 -14 5 -15 4 -4 -9 7 -8 16 -12 21 -10 4 3 26 -3 48 -15 l40
-20 -40 -42 c-23 -24 -44 -42 -48 -41 -3 0 -12 -5 -18 -12 -9 -10 -10 -16 -2
-21 6 -4 27 9 45 27 19 19 45 45 58 58 l24 24 32 -44 c31 -42 32 -47 25 -112
-3 -38 -2 -74 3 -80 5 -7 17 -35 26 -64 19 -57 85 -126 150 -157 39 -18 123
-21 180 -5 32 9 41 8 54 -5 14 -14 14 -18 -6 -39 l-21 -23 26 -19 c29 -23 62
-34 114 -40 20 -2 56 -9 80 -14 57 -13 153 -16 204 -6 22 4 73 21 113 38 70
29 77 30 131 19 31 -7 65 -12 74 -12 10 0 58 38 108 85 50 47 94 85 98 85 3 0
37 -41 76 -91 64 -84 85 -107 85 -96 0 3 -32 44 -71 93 l-71 88 29 10 c44 14
62 35 79 92 17 58 33 77 62 72 10 -2 30 2 43 9 13 6 32 14 42 17 12 4 16 12
13 23 -7 22 8 50 18 34 4 -6 4 -16 0 -23 -4 -7 -3 -8 4 -4 15 9 16 33 2 38 -6
2 -4 19 6 45 16 41 34 53 80 53 15 0 29 15 48 49 27 51 59 71 115 71 14 1 37
7 51 15 38 22 50 18 90 -25 32 -35 41 -39 61 -32 32 12 47 6 64 -29 19 -36 31
-36 75 1 22 20 37 27 44 20 13 -13 53 -13 61 0 3 6 10 10 16 10 13 0 11 -34
-2 -47 -7 -7 -9 -18 -6 -27 5 -11 13 -13 34 -7 36 10 85 -5 63 -20 -11 -7 -6
-8 15 -3 17 4 33 9 38 11 12 7 8 38 -8 59 -20 26 -19 51 4 63 24 13 31 5 31
-37 0 -49 20 -162 33 -191 7 -13 20 -26 30 -30 11 -4 26 -29 36 -58 46 -136
254 -308 451 -372 36 -12 72 -24 80 -28 8 -3 30 -7 49 -9 18 -2 53 -11 77 -20
25 -9 47 -14 50 -11 12 11 -53 35 -124 45 -41 6 -82 18 -91 26 -10 9 -25 16
-35 16 -9 0 -30 7 -45 15 -16 8 -31 12 -33 10 -8 -8 -89 35 -95 50 -3 8 -12
15 -20 15 -19 0 -84 50 -78 60 6 9 -12 23 -33 26 -19 3 -28 14 -12 14 8 0 -11
24 -42 53 -56 53 -94 110 -83 127 7 12 -24 61 -35 55 -5 -3 -11 4 -15 15 -3
11 -10 20 -14 20 -7 0 -11 26 -12 87 -1 13 -5 21 -9 18 -5 -3 -8 14 -7 37 1
24 -2 55 -6 69 -5 18 -1 31 12 46 27 29 63 102 56 113 -4 6 10 37 29 69 37 61
41 71 28 71 -4 0 -22 -24 -39 -52z m-989 -313 l27 -35 -31 -67 c-30 -65 -74
-123 -93 -123 -4 0 -5 10 -1 23 4 12 7 51 5 86 -2 71 12 126 37 141 25 14 27
13 56 -25z"/>
<path d="M8654 8571 c-28 -30 -59 -53 -94 -66 -28 -11 -56 -26 -62 -32 -6 -7
-17 -13 -26 -13 -25 0 -109 -53 -92 -58 8 -3 21 -13 28 -24 7 -10 19 -18 26
-18 7 0 18 -11 24 -25 18 -39 52 -41 113 -6 85 49 135 103 124 134 -4 8 5 18
20 25 30 14 32 40 6 73 -10 13 -20 31 -22 40 -3 12 -15 4 -45 -30z m59 -20
c16 -27 16 -29 -8 -51 -14 -13 -25 -31 -25 -39 0 -42 -119 -141 -169 -141 -11
0 -30 13 -42 29 -12 16 -30 32 -41 35 -11 2 -18 10 -16 17 4 12 104 71 183
108 22 10 51 30 64 45 31 33 33 32 54 -3z"/>
<path d="M5040 7572 c0 -4 64 -30 143 -57 102 -35 158 -49 199 -49 32 -1 58
-2 58 -4 0 -15 -67 -130 -106 -182 -27 -36 -66 -97 -87 -137 -21 -40 -42 -75
-47 -78 -6 -3 -10 -15 -10 -25 0 -19 -58 -75 -68 -66 -3 3 7 24 23 46 29 42
28 70 -3 70 -15 0 -18 5 -14 25 8 42 -6 72 -44 95 -32 20 -39 21 -79 10 -52
-15 -151 -84 -216 -152 -28 -30 -55 -48 -69 -48 -22 0 -22 1 -6 25 20 31 10
33 -15 3 -11 -11 -19 -17 -19 -13 0 4 -9 0 -20 -10 -19 -17 -21 -17 -39 -1
-22 20 -49 12 -53 -16 -2 -13 -15 -24 -38 -32 -36 -11 -69 -59 -70 -102 0 -22
-23 -47 -53 -57 -30 -11 -63 9 -138 86 -68 69 -80 77 -149 98 -41 13 -79 24
-85 24 -5 1 -19 5 -29 10 -15 6 -33 2 -65 -17 -40 -22 -46 -30 -49 -62 -3 -36
-3 -36 -47 -33 -24 1 -52 10 -63 20 -16 15 -24 16 -48 7 -16 -6 -58 -13 -94
-16 -89 -5 -199 -27 -235 -46 -32 -18 -72 -57 -98 -100 -9 -15 -32 -31 -54
-38 -21 -6 -47 -15 -58 -20 -11 -5 -31 -11 -46 -14 -14 -3 -50 -17 -80 -30
-43 -20 -47 -24 -21 -19 18 3 50 14 70 24 20 11 43 19 50 19 32 0 116 37 136
59 91 105 134 130 252 144 36 4 43 2 55 -19 7 -13 17 -24 22 -24 6 0 2 9 -8
20 -24 27 -17 32 50 35 31 2 62 8 69 14 10 8 18 6 32 -10 11 -12 26 -18 37
-15 11 2 28 -1 38 -7 28 -17 55 3 51 38 -3 30 13 55 36 55 8 0 23 7 32 15 14
13 21 13 56 0 21 -8 64 -21 96 -30 48 -13 67 -26 130 -89 40 -40 83 -78 95
-85 52 -27 106 -4 138 59 30 59 40 67 95 73 81 10 115 18 150 36 87 45 148 33
224 -44 28 -28 77 -66 109 -84 31 -18 57 -37 57 -42 0 -5 -13 -12 -29 -15 -24
-5 -30 -13 -36 -43 -8 -48 -9 -90 0 -122 9 -35 -63 -129 -101 -129 -13 0 -27
-7 -30 -15 -4 -8 -10 -12 -15 -9 -5 3 -28 -4 -51 -14 -50 -22 -85 -57 -68 -67
8 -5 8 -11 -1 -21 -24 -29 19 -61 47 -35 14 14 104 25 104 14 0 -6 -13 -27
-30 -48 -32 -40 -36 -50 -20 -60 16 -10 48 17 67 59 15 34 24 42 53 47 19 4
60 13 91 22 58 16 119 11 142 -12 6 -6 47 -11 91 -11 70 0 85 3 120 27 23 15
43 28 45 30 2 1 4 15 6 30 3 40 15 63 34 64 12 0 11 2 -4 8 -11 5 -22 5 -25 2
-3 -4 -27 -7 -55 -7 -27 -1 -90 -4 -140 -7 -114 -8 -125 -2 -93 49 27 42 45
138 30 157 -13 16 -25 70 -15 65 4 -2 87 -42 183 -90 145 -71 180 -92 202
-124 19 -27 24 -41 17 -50 -7 -8 -6 -13 2 -16 8 -3 14 -33 16 -84 2 -43 7 -99
12 -125 5 -30 3 -66 -8 -110 -14 -61 -16 -104 -10 -241 1 -38 -5 -87 -15 -122
-21 -73 -22 -212 -2 -281 13 -43 13 -62 2 -140 -18 -119 -60 -266 -80 -280 -9
-7 -16 -18 -16 -25 0 -7 -6 -10 -14 -7 -7 3 -18 1 -24 -5 -14 -14 -31 -2 -43
30 -15 39 7 54 32 22 l20 -25 -13 28 c-10 23 -9 30 2 37 19 12 38 2 44 -23 2
-12 4 -2 3 23 0 28 6 55 17 73 14 20 17 39 13 68 -8 58 -16 63 -73 41 -70 -27
-114 -87 -114 -152 0 -81 31 -132 88 -143 18 -4 35 -18 49 -44 28 -49 75 -225
67 -250 -15 -45 -31 -66 -71 -90 -23 -13 -56 -40 -72 -58 l-29 -34 -44 53
c-24 30 -61 77 -83 106 -22 29 -52 67 -67 85 -21 24 -24 35 -16 43 7 7 8 13 3
13 -6 1 -15 2 -22 3 -12 1 -18 8 -222 277 -69 90 -127 166 -130 169 -6 5 -59
74 -162 210 -64 85 -80 105 -110 141 -9 11 -27 35 -40 54 -13 19 -27 35 -31
35 -5 0 -8 4 -8 10 0 11 -25 44 -52 68 -9 8 -14 22 -10 30 3 8 1 13 -4 10 -5
-3 -22 12 -39 33 -16 21 -32 38 -35 39 -3 0 -6 -12 -7 -27 -1 -21 0 -24 6 -10
6 17 8 17 20 3 14 -16 6 -80 -9 -71 -4 3 -10 -1 -13 -9 -6 -16 19 -30 28 -16
8 13 65 13 65 0 0 -6 15 -28 34 -48 19 -20 65 -77 102 -127 38 -49 71 -92 74
-95 3 -3 26 -32 51 -65 25 -33 65 -85 88 -115 23 -30 73 -95 110 -145 38 -49
89 -117 115 -149 33 -43 45 -66 41 -83 -3 -20 0 -23 14 -18 14 4 28 -7 55 -44
40 -54 42 -61 21 -61 -8 0 -15 -4 -15 -9 0 -5 9 -7 20 -4 15 4 31 -6 60 -38
22 -24 40 -47 40 -51 0 -3 12 -20 28 -36 38 -41 86 -102 103 -132 8 -14 18
-28 24 -32 5 -4 -11 -32 -36 -65 -78 -100 -170 -115 -255 -41 -57 50 -44 64
56 60 47 -2 96 1 110 7 20 9 11 10 -44 6 -38 -2 -89 0 -114 6 -79 17 -97 -25
-34 -82 50 -47 87 -60 159 -57 69 2 88 14 143 90 19 26 41 48 47 48 7 0 84
-35 170 -77 87 -43 161 -76 166 -75 4 1 7 -3 7 -9 0 -6 7 -8 16 -5 11 4 14 1
12 -11 -2 -10 -12 -19 -23 -22 -11 -2 -33 -14 -49 -26 -23 -18 -33 -21 -47
-12 -13 8 -24 8 -43 -1 -40 -18 -32 -33 13 -26 24 4 41 2 45 -5 11 -17 25 -13
52 16 13 14 28 23 32 19 4 -5 -17 -29 -46 -55 -58 -52 -65 -71 -24 -71 23 -1
101 -55 90 -64 -1 -2 -12 -8 -23 -14 -18 -10 -17 -11 10 -12 17 0 37 5 45 10
16 11 8 20 -46 58 -17 12 -17 12 6 7 58 -14 85 -14 144 0 35 8 80 22 102 32
21 9 47 16 56 14 21 -3 35 38 17 50 -10 6 -11 11 -3 19 9 9 26 3 66 -19 42
-24 67 -31 107 -31 62 0 63 10 4 52 -72 53 -175 48 -250 -11 -39 -30 -36 -41
4 -14 46 32 57 38 49 24 -4 -6 -3 -18 4 -26 13 -16 2 -24 -81 -54 -79 -28
-130 -35 -141 -19 -8 10 -11 10 -15 1 -7 -18 -39 -16 -58 3 -12 12 -26 15 -58
10 l-42 -6 53 50 c39 37 52 55 47 69 -11 36 18 43 79 20 31 -12 59 -19 63 -15
11 11 -13 28 -41 29 -14 1 -26 6 -26 11 0 4 -7 5 -16 2 -9 -4 -13 -2 -8 5 12
20 145 76 256 108 101 30 283 61 338 59 37 -2 169 19 223 36 34 10 47 11 47 3
0 -19 -17 -40 -27 -34 -15 10 -114 -23 -107 -35 5 -7 -3 -9 -22 -4 -21 5 -25
4 -14 -4 13 -8 13 -10 -2 -10 -10 0 -18 -4 -18 -9 0 -5 17 -4 40 1 22 6 40 13
40 17 0 12 75 10 82 -2 5 -9 12 -7 25 6 17 17 17 18 1 11 -22 -8 -24 9 -3 26
8 7 15 20 15 29 0 13 17 21 63 32 58 14 64 14 64 0 0 -9 -4 -21 -9 -28 -5 -7
-7 -17 -3 -23 4 -7 -2 -14 -14 -17 -21 -5 -30 -33 -12 -33 6 0 21 -10 35 -23
25 -23 56 -32 56 -15 0 14 44 27 51 15 4 -5 12 -6 18 -3 6 4 9 12 6 17 -3 5 1
6 9 3 19 -7 20 -16 4 -32 -9 -9 -9 -12 0 -12 7 0 12 4 12 10 0 5 7 7 16 3 14
-5 15 -3 5 15 -8 15 -8 23 0 27 6 4 8 13 5 21 -3 7 -1 16 4 19 5 3 7 12 3 20
-3 8 0 15 7 15 18 0 45 31 33 38 -5 4 -13 20 -17 35 -5 22 -11 27 -24 22 -45
-18 -101 -32 -96 -24 9 15 63 40 120 55 52 13 55 13 101 -11 26 -14 48 -27 50
-28 10 -10 -26 -92 -63 -144 -47 -66 -254 -253 -280 -253 -5 0 -28 -18 -51
-39 -23 -21 -46 -40 -51 -42 -31 -12 -161 -99 -189 -127 -19 -18 -38 -30 -43
-27 -5 3 -12 -1 -17 -9 -4 -7 -39 -33 -78 -56 -38 -24 -80 -54 -93 -67 -12
-13 -25 -22 -30 -20 -11 7 -177 -119 -174 -133 1 -6 -2 -9 -7 -6 -5 4 -29 -7
-53 -22 -24 -16 -69 -47 -101 -68 -62 -41 -79 -57 -50 -48 16 5 16 4 -1 -10
-10 -8 -23 -13 -28 -10 -4 3 -11 -2 -14 -11 -4 -9 -12 -14 -19 -11 -7 2 -28
-9 -46 -24 -19 -16 -37 -29 -40 -30 -4 0 -33 -17 -65 -39 -33 -21 -106 -64
-164 -94 -58 -31 -104 -61 -102 -67 1 -6 -2 -9 -7 -6 -11 7 -201 -94 -233
-124 -12 -11 -25 -17 -29 -14 -5 3 -19 -1 -31 -9 -13 -8 -79 -47 -147 -88 -68
-40 -125 -79 -128 -86 -3 -6 -11 -9 -18 -7 -7 3 -16 1 -20 -5 -4 -7 1 -9 12
-5 16 5 16 4 -2 -10 -11 -9 -25 -14 -31 -12 -7 3 -18 -2 -24 -10 -7 -8 -19
-14 -26 -14 -8 0 -14 -4 -14 -10 0 -5 -19 -18 -42 -28 -24 -11 -52 -27 -63
-36 -36 -28 -169 -121 -210 -145 -98 -59 -295 -203 -289 -212 7 -12 69 25 69
42 0 6 14 19 31 28 18 9 48 24 68 35 20 10 41 27 47 37 5 11 16 19 23 19 7 0
24 9 37 21 37 31 91 67 125 83 17 8 68 40 115 71 46 32 102 67 124 79 85 47
115 68 108 79 -4 6 -1 7 6 3 7 -5 20 -1 29 6 9 8 43 29 75 47 31 18 57 37 57
42 0 6 4 8 9 5 4 -3 28 7 53 23 25 16 54 31 64 35 10 3 31 17 47 32 15 14 38
26 50 26 26 2 49 17 42 28 -7 11 32 23 46 14 6 -3 23 2 37 13 15 11 43 28 62
38 19 10 37 21 40 24 3 3 41 24 84 46 44 22 78 44 77 48 -3 12 43 46 68 50 11
2 24 7 28 12 5 4 2 5 -6 0 -10 -5 -12 -4 -7 4 4 6 11 9 16 6 5 -3 30 10 55 30
26 19 51 35 55 35 15 0 80 61 75 70 -3 4 8 10 24 13 16 4 46 21 67 39 20 18
44 33 53 33 9 0 15 5 14 12 -2 7 3 10 10 7 7 -2 22 5 33 17 10 13 13 19 5 14
-10 -5 -12 -4 -7 4 4 6 11 9 16 6 5 -3 33 13 62 35 45 36 248 175 300 206 11
6 32 23 47 38 15 14 32 26 38 26 5 0 23 12 39 27 16 15 31 28 34 28 19 2 371
258 378 276 2 4 12 18 24 31 88 101 146 206 132 240 -3 7 -28 24 -55 37 -28
13 -48 25 -46 28 3 2 19 -3 36 -11 35 -18 77 -21 86 -5 11 17 -25 48 -69 60
-23 6 -51 20 -63 31 -19 17 -25 19 -38 8 -25 -20 -18 -55 13 -70 27 -13 27
-13 -33 -27 -32 -7 -65 -11 -73 -8 -7 2 -11 1 -8 -4 7 -11 -41 -44 -52 -37 -5
3 -16 -4 -26 -15 -10 -13 -24 -18 -33 -14 -9 3 -20 0 -25 -7 -6 -10 -10 -10
-17 1 -7 11 -11 10 -20 -5 -9 -16 -12 -17 -21 -4 -8 13 -10 13 -10 -2 0 -10
-4 -18 -10 -18 -5 0 -10 7 -10 15 0 22 -28 18 -35 -5 -11 -33 -89 -52 -300
-70 -162 -15 -353 -60 -482 -115 -98 -42 -108 -44 -144 -33 -22 6 -39 15 -39
20 0 4 -4 8 -10 8 -5 0 -40 15 -77 32 -38 18 -70 33 -73 33 -22 5 -150 72
-150 79 0 20 144 141 157 133 5 -3 9 20 10 51 3 57 -21 154 -59 244 l-20 47
30 38 c17 21 39 71 51 113 12 41 27 93 34 115 17 56 16 243 -1 254 -17 10 -20
167 -4 196 5 11 16 48 22 83 l13 62 36 1 36 1 -33 8 c-18 4 -35 10 -38 13 -3
3 -8 41 -11 84 -4 56 -1 93 11 132 17 59 21 164 7 221 -4 20 -5 59 -1 88 5 38
3 55 -7 63 -7 7 -13 17 -13 25 0 36 -69 89 -193 150 -71 34 -132 66 -135 70
-4 4 -1 4 6 0 6 -4 12 -3 12 2 0 5 -20 13 -45 16 -24 4 -47 11 -50 17 -9 13
-53 11 -58 -3 -2 -7 3 -35 11 -63 21 -73 19 -99 -17 -156 -17 -28 -31 -54 -31
-59 0 -5 11 -17 25 -26 25 -16 66 -18 229 -11 78 4 65 -65 -17 -90 -36 -11
-140 -7 -165 6 -50 26 -182 18 -182 -11 0 -6 -12 -8 -31 -4 -18 3 -38 1 -45
-5 -10 -8 -18 -8 -27 -1 -13 11 -47 10 -111 -3 -35 -7 -38 -6 -33 9 4 10 7 23
7 31 0 7 9 15 21 18 12 3 18 10 15 15 -3 6 1 13 10 16 8 3 12 2 9 -4 -9 -14
-3 -13 59 11 39 14 68 35 99 69 52 58 63 90 44 126 -23 43 -3 108 39 128 19 8
34 22 34 29 0 7 -26 30 -57 50 -32 20 -83 61 -115 90 -44 41 -68 55 -111 65
-30 7 -62 10 -71 6 -59 -23 56 92 130 129 27 14 68 30 91 37 39 12 45 11 64
-6 16 -14 20 -28 17 -61 -2 -24 -1 -43 2 -43 3 0 11 -4 18 -8 10 -7 8 -19 -8
-55 -12 -26 -18 -52 -15 -58 8 -11 145 -3 158 10 4 4 -6 6 -23 3 -19 -3 -30 0
-30 7 0 24 112 233 146 274 13 16 24 32 24 36 0 5 14 26 31 47 17 22 38 54 45
72 13 29 19 32 57 33 l42 1 -42 11 c-32 7 -43 15 -43 28 0 22 -12 24 -39 7
-15 -9 -28 -9 -59 0 -22 7 -48 12 -59 12 -11 0 -35 7 -53 17 -19 9 -47 17 -64
19 -17 1 -53 11 -79 23 -52 23 -67 26 -67 13z m515 -2262 c3 -11 -3 -39 -14
-64 -10 -24 -17 -47 -13 -50 3 -3 -3 -6 -14 -6 -10 0 -28 -7 -38 -15 -24 -18
-66 -20 -66 -3 0 6 3 8 7 5 4 -4 13 7 20 24 16 37 17 52 3 44 -6 -4 -8 -11 -5
-16 4 -5 1 -9 -5 -9 -6 0 -8 -5 -4 -12 4 -6 3 -8 -3 -5 -17 10 -3 54 26 83 45
46 96 57 106 24z"/>
<path d="M6560 5368 c-28 -15 -39 -60 -19 -84 15 -19 29 -18 29 2 0 28 24 9
47 -36 29 -56 76 -100 108 -100 22 0 25 -3 19 -25 -7 -30 19 -67 42 -58 8 3
25 -2 38 -10 22 -15 28 -15 63 -1 22 9 45 25 52 37 19 29 15 116 -5 139 -26
28 -260 138 -307 144 -25 3 -52 0 -67 -8z m170 -45 c118 -55 123 -57 163 -83
37 -25 37 -26 35 -85 -3 -59 -4 -60 -41 -78 -35 -16 -39 -16 -62 -1 -14 9 -31
14 -39 11 -20 -8 -30 26 -17 52 14 25 0 35 -34 27 -27 -7 -80 32 -91 67 -4 12
-16 35 -28 52 -11 16 -19 38 -18 47 2 10 -2 18 -8 18 -6 0 -8 4 -5 10 9 15 63
1 145 -37z"/>
<path d="M4004 5346 c-8 -14 -23 -27 -32 -29 -16 -4 -16 -5 0 -6 17 -1 43 20
51 41 3 9 12 6 30 -11 22 -20 33 -23 70 -18 35 5 50 2 78 -17 19 -13 57 -31
85 -40 29 -9 61 -27 72 -39 73 -78 95 -95 148 -116 33 -12 102 -28 154 -35 52
-7 108 -19 124 -27 37 -18 54 -44 41 -63 -41 -56 -49 -73 -50 -112 -1 -24 1
-44 4 -44 4 0 31 -36 61 -81 l54 -81 -20 -36 c-10 -20 -29 -47 -42 -61 -13
-14 -37 -51 -53 -82 -45 -83 -91 -124 -194 -171 -49 -22 -113 -60 -141 -84
-40 -34 -54 -40 -64 -31 -10 10 -12 8 -6 -6 4 -13 -7 -38 -35 -78 -23 -32 -45
-59 -50 -59 -16 0 -39 44 -29 54 6 6 10 13 10 17 0 13 -50 19 -70 9 -16 -8
-20 -8 -20 4 0 8 5 18 11 21 6 4 14 17 19 29 19 50 -66 87 -118 50 -29 -20
-18 -38 20 -30 43 8 51 -21 13 -48 -68 -49 -105 -89 -105 -113 0 -30 48 -77
94 -93 18 -6 38 -21 44 -33 6 -12 11 -16 11 -9 1 6 6 12 12 12 15 0 3 -32 -37
-101 -19 -31 -34 -64 -34 -73 0 -21 -67 -84 -115 -108 -22 -11 -50 -29 -62
-40 -12 -11 -26 -17 -32 -13 -6 3 -11 -2 -12 -12 0 -10 -26 -37 -60 -61 -32
-24 -57 -47 -55 -50 6 -9 -17 -39 -28 -38 -12 1 -48 -94 -42 -111 3 -8 2 -12
-3 -9 -12 8 -20 -16 -16 -50 4 -34 -42 -114 -65 -113 -37 3 -46 -1 -27 -12 24
-14 79 18 87 51 3 14 16 30 29 36 20 10 21 13 7 21 -14 8 -15 14 -5 39 6 16
13 36 14 44 6 39 58 128 92 157 81 70 167 135 202 153 45 22 111 93 111 118 0
10 11 33 25 52 14 19 25 39 25 45 0 14 66 113 96 145 13 14 45 54 71 90 81
111 152 171 254 215 72 32 101 51 137 91 45 49 103 137 155 235 18 35 28 44
39 38 8 -5 35 -10 59 -11 24 -2 46 -6 49 -9 3 -4 28 -9 55 -12 28 -4 59 -8 70
-11 11 -3 32 -7 46 -10 15 -3 45 -24 67 -47 23 -23 49 -39 58 -37 13 2 7 13
-27 46 l-44 43 54 -21 c89 -34 68 -16 -26 23 -56 24 -89 33 -94 26 -4 -7 -24
-7 -65 1 -32 7 -68 13 -79 15 -88 15 -131 28 -149 43 -37 32 -75 77 -76 88 0
6 77 -22 172 -63 94 -40 176 -72 181 -70 4 1 -77 38 -182 82 -178 75 -191 82
-201 112 -12 34 -6 54 31 102 23 29 24 54 3 75 -8 9 -12 20 -9 26 7 12 -19 42
-29 33 -10 -10 -7 -25 4 -18 6 3 10 1 10 -4 0 -13 -6 -14 -28 -2 -9 5 -68 16
-129 25 -155 23 -233 58 -254 114 -5 13 -22 31 -39 40 -36 21 -39 36 -5 28 15
-4 25 -2 25 4 0 6 -4 9 -9 5 -5 -3 -12 -1 -16 5 -4 6 -12 6 -24 -2 -24 -14
-82 -3 -112 22 -29 26 -60 34 -102 26 -26 -5 -39 -1 -57 14 -30 26 -36 25 -56
-4z m177 -1115 l23 -18 -22 -28 c-12 -15 -22 -34 -22 -42 0 -8 -4 -11 -10 -8
-5 3 -10 4 -10 1 0 -15 41 -26 61 -16 26 14 41 9 29 -10 -5 -9 -22 -13 -44
-12 -20 2 -36 0 -36 -4 0 -15 43 -64 56 -64 21 0 18 -8 -16 -41 -29 -29 -31
-30 -66 -17 -41 14 -94 59 -94 78 0 14 54 68 115 117 39 30 40 32 20 47 -11 8
-31 16 -45 16 -23 1 -23 2 -5 10 30 13 41 12 66 -9z"/>
<path d="M7233 5068 c-13 -6 -23 -15 -23 -20 0 -4 -21 -39 -46 -77 -47 -72
-50 -97 -8 -87 17 5 29 0 41 -14 10 -11 26 -20 35 -20 10 0 24 -11 30 -25 14
-31 43 -32 59 -4 15 29 13 117 -3 138 -24 28 -48 90 -42 106 7 17 -11 19 -43
3z"/>
<path d="M1931 4893 c-1 -42 -4 -51 -16 -47 -8 4 -15 1 -15 -6 0 -6 8 -10 18
-8 12 2 25 -10 42 -43 14 -25 38 -64 53 -87 29 -40 38 -94 37 -211 0 -50 17
-94 48 -124 24 -23 34 -25 104 -24 l78 1 56 -57 c50 -51 57 -62 32 -58 -4 0
-5 -6 -2 -13 3 -8 12 -12 19 -10 7 3 25 -11 41 -33 16 -21 39 -46 52 -57 24
-19 27 -63 3 -58 -7 1 -11 -3 -9 -10 3 -7 14 -12 25 -10 29 4 91 -35 108 -69
9 -16 24 -33 35 -39 11 -6 20 -17 20 -25 0 -20 59 -53 117 -65 28 -6 54 -18
57 -26 3 -8 1 -14 -4 -14 -12 0 8 -56 26 -71 8 -6 14 -15 14 -20 0 -15 -83
-98 -92 -93 -9 6 -11 -10 -2 -19 7 -6 52 37 91 87 22 27 24 28 47 13 16 -11
26 -29 30 -54 6 -44 3 -94 -8 -111 -4 -6 6 -23 24 -38 25 -22 30 -35 30 -70 0
-46 -5 -54 -59 -85 -28 -17 -32 -25 -29 -50 4 -24 2 -28 -13 -24 -16 5 -49
-18 -49 -34 0 -5 7 -14 15 -21 22 -18 18 -28 -8 -23 -25 5 -46 -23 -50 -67 -3
-32 -66 -119 -112 -154 -61 -47 -70 -139 -15 -148 19 -3 19 -5 -10 -66 -16
-35 -30 -79 -30 -98 l0 -34 45 5 c41 4 45 3 36 -14 -6 -10 -17 -23 -25 -31
-27 -21 -18 -29 22 -18 49 13 122 56 145 85 10 13 24 23 30 23 20 1 57 37 57
55 0 11 5 15 15 11 9 -3 15 0 15 10 0 8 5 12 10 9 13 -8 42 14 34 26 -3 5 -2
8 3 7 12 -4 86 42 79 49 -3 4 4 18 16 32 l23 25 -25 -17 c-42 -29 -48 -30 -82
-6 l-33 22 33 -32 c19 -17 38 -29 43 -26 5 4 9 4 9 1 0 -3 -10 -10 -21 -17
-17 -9 -20 -8 -14 2 6 9 3 10 -10 5 -10 -4 -28 0 -42 9 -13 9 -29 15 -36 12
-6 -2 -20 6 -30 17 l-18 21 7 -25 c8 -27 37 -54 42 -39 5 12 29 11 38 -2 7
-13 -34 -58 -88 -95 -20 -15 -35 -30 -33 -35 3 -4 0 -11 -6 -15 -8 -4 -9 -3
-5 4 7 11 -9 10 -76 -3 -10 -1 -21 2 -26 9 -14 18 -22 75 -12 81 17 10 10 39
-15 70 -21 25 -25 27 -25 11 0 -11 -3 -17 -6 -13 -11 11 7 46 21 41 8 -3 22
-1 32 5 16 9 16 10 -5 11 -13 0 -21 4 -18 9 3 5 16 6 29 3 21 -5 21 -5 5 11
-16 16 -19 15 -52 -19 -19 -20 -37 -41 -39 -47 -6 -19 -27 3 -27 29 0 16 20
46 58 87 74 80 102 120 102 147 0 38 19 60 51 60 26 0 29 3 23 24 -4 19 0 28
20 41 20 13 25 24 23 48 -2 25 3 34 24 44 37 18 52 38 51 71 0 15 4 35 9 44 7
13 4 22 -11 35 -15 13 -17 19 -7 26 7 5 4 6 -9 2 -28 -7 -36 14 -22 53 8 22 8
43 -3 88 -12 52 -18 61 -49 76 -52 25 -60 35 -60 73 0 25 -6 37 -22 46 -13 7
-29 19 -36 28 -8 9 -11 10 -7 4 9 -18 -29 -17 -63 1 -15 8 -49 42 -76 75 -27
34 -65 71 -84 83 -19 12 -41 37 -49 57 -9 20 -25 45 -37 57 -32 31 -63 70 -76
96 -7 12 -22 31 -34 40 l-21 17 29 30 c39 41 28 49 -12 10 -18 -17 -32 -27
-32 -21 0 20 -68 41 -138 43 -96 2 -113 20 -125 127 -5 42 -8 96 -8 120 1 45
-16 89 -44 112 -13 11 -75 132 -75 146 0 2 5 3 11 2 6 -2 14 3 16 10 3 6 -2
12 -11 12 -8 0 -16 11 -19 28 -2 15 -5 4 -6 -25z"/>
<path d="M8620 4435 c-8 -8 -30 -27 -48 -41 -18 -15 -39 -42 -47 -61 -27 -64
-14 -111 22 -81 14 11 15 11 11 -2 -7 -22 -37 -24 -58 -5 -16 15 -18 15 -24
-2 -9 -22 -8 -28 2 -29 18 -2 55 -23 42 -23 -9 -1 -21 4 -28 11 -9 9 -12 9
-12 1 0 -7 4 -14 9 -17 4 -3 11 -25 13 -50 4 -28 14 -54 31 -72 14 -15 24 -31
21 -35 -2 -4 1 -11 7 -15 8 -4 9 -3 5 4 -11 18 3 15 41 -9 35 -22 91 -21 133
1 20 11 60 90 60 119 0 10 10 30 21 45 16 20 19 30 11 38 -8 8 -15 8 -27 -2
-11 -9 -19 -9 -28 -2 -7 6 -18 7 -26 3 -7 -5 -23 -6 -35 -3 -20 5 -20 4 -4
-14 30 -35 33 -72 8 -106 -13 -17 -16 -27 -9 -23 12 7 12 6 1 -7 -14 -17 -60
-21 -78 -7 -7 6 -18 8 -25 7 -7 -2 -13 2 -14 7 0 6 -6 20 -13 31 -15 29 -32
105 -21 98 5 -3 14 7 21 21 9 21 9 31 0 46 -16 24 -1 88 25 111 44 38 91 29
123 -24 l19 -31 6 25 c5 20 11 24 27 20 18 -4 19 -2 10 13 -7 13 -6 24 1 36 6
10 8 22 4 26 -5 4 -11 3 -15 -3 -15 -23 -51 -25 -93 -4 -51 24 -51 24 -69 5z"/>
<path d="M9030 4433 c0 -7 -9 -13 -20 -13 -15 0 -20 -7 -20 -29 0 -34 -37
-123 -56 -134 -8 -4 -14 -21 -14 -36 0 -28 -13 -64 -53 -151 -12 -25 -21 -49
-22 -55 0 -5 -9 -9 -20 -7 -19 2 -19 2 -2 -9 10 -6 21 -8 24 -5 4 3 12 1 18
-4 9 -7 16 -6 25 4 9 12 16 13 30 3 25 -15 35 -4 20 22 -8 17 -7 36 5 84 9 34
18 68 19 76 2 13 27 28 48 30 4 1 3 -13 -2 -30 -7 -23 -6 -31 6 -35 7 -2 20
-6 28 -8 23 -7 36 14 25 42 -5 13 -7 27 -5 29 11 11 26 -10 45 -63 23 -60 27
-119 10 -130 -7 -4 2 -12 22 -18 19 -7 36 -9 39 -6 11 14 38 18 49 7 17 -17
13 2 -7 31 -30 44 -62 132 -62 170 0 22 -8 44 -19 56 -11 12 -28 53 -39 91
-12 44 -24 70 -33 70 -8 0 -19 7 -26 15 -9 10 -12 11 -13 3z"/>
<path d="M9533 4421 l-31 -16 22 -17 c24 -18 62 -119 57 -154 -1 -12 10 -36
26 -54 30 -36 33 -44 40 -106 4 -35 1 -44 -17 -57 -24 -17 -18 -23 25 -28 20
-3 29 0 28 9 -4 15 9 16 25 0 9 -9 15 -9 23 -1 8 8 8 13 0 17 -18 11 -12 57
12 107 19 39 21 48 9 55 -10 7 -4 9 19 9 33 0 34 1 36 45 2 57 23 113 57 152
15 17 25 32 23 34 -1 2 -28 5 -60 8 -58 6 -69 -1 -42 -24 8 -7 15 -20 15 -29
0 -22 -41 -104 -62 -125 -10 -10 -18 -26 -18 -37 0 -11 -7 -34 -17 -52 l-16
-32 -11 30 c-9 26 -15 30 -41 27 -16 -2 -28 -1 -24 2 3 3 19 6 37 8 36 3 41
19 13 47 -35 35 -64 152 -41 166 15 9 2 25 -15 18 -9 -3 -21 -1 -28 4 -8 6
-23 4 -44 -6z"/>
<path d="M9986 4421 c-4 -6 -16 -9 -26 -6 -17 6 -17 4 1 -32 24 -46 24 -91 2
-138 -14 -29 -15 -40 -5 -55 24 -38 8 -170 -20 -170 -20 0 -5 -28 18 -34 19
-5 30 -2 41 11 8 10 12 13 9 7 -7 -14 47 -18 129 -10 22 2 48 0 58 -6 15 -8
18 -6 15 9 -2 10 3 24 12 31 11 10 12 15 3 18 -7 3 -13 15 -13 27 -1 20 -2 20
-11 5 -14 -25 -46 -40 -99 -49 -63 -10 -80 7 -80 78 0 77 29 123 45 72 13 -41
31 6 27 70 -2 23 -3 24 -22 6 -28 -25 -50 -13 -50 29 0 58 15 84 54 91 45 9
73 -1 82 -27 6 -20 8 -20 19 -5 7 9 17 17 24 17 6 0 11 7 11 15 0 8 -5 15 -11
15 -6 0 -8 9 -4 20 6 17 3 19 -17 12 -13 -5 -47 -7 -77 -5 -31 2 -60 -2 -68
-9 -10 -8 -17 -7 -27 7 -9 13 -15 15 -20 6z"/>
<path d="M9287 4403 c3 -7 9 -13 14 -13 16 0 10 -119 -7 -146 -14 -21 -15 -29
-4 -52 7 -15 15 -52 17 -82 3 -43 -1 -60 -17 -82 l-21 -28 26 0 c14 0 25 -5
25 -11 0 -5 5 -7 12 -3 18 11 188 13 188 2 0 -5 4 -7 9 -3 10 6 9 35 -4 73 -8
25 -25 30 -25 7 0 -36 -89 -46 -121 -14 -21 21 -21 23 -7 164 2 17 -2 29 -7
28 -10 -1 -5 116 6 156 3 11 -7 15 -42 16 -35 1 -46 -2 -42 -12z"/>
<path d="M10353 4410 c-27 -11 -43 -40 -43 -77 0 -55 118 -148 141 -112 7 11
9 11 9 1 0 -8 -9 -16 -19 -19 -12 -3 -17 -11 -14 -19 7 -19 32 -18 55 3 10 9
18 11 18 6 0 -6 -7 -14 -16 -17 -13 -5 -13 -10 6 -36 15 -21 19 -37 14 -52 -4
-13 -9 -30 -10 -38 -4 -22 -34 -40 -66 -40 -33 0 -83 43 -74 65 3 8 1 17 -4
20 -5 3 -12 -6 -16 -20 -3 -14 -12 -25 -20 -25 -7 0 -11 -6 -8 -14 3 -8 0 -17
-7 -22 -15 -9 87 -32 146 -33 44 -1 54 4 73 34 36 58 44 84 38 118 -8 45 -54
104 -87 111 -36 7 -112 67 -115 91 -4 27 6 42 31 46 25 4 89 -32 74 -42 -8 -5
-8 -8 0 -13 6 -4 13 4 17 19 5 19 11 24 25 20 24 -8 24 -4 2 22 -21 23 -115
38 -150 23z"/>
<path d="M10602 4376 c3 -53 13 -57 65 -25 50 31 78 16 87 -47 3 -26 2 -52 -3
-58 -10 -14 -25 -74 -15 -64 3 4 15 3 26 -3 14 -7 23 -7 34 2 8 7 14 7 14 1 0
-13 -26 -23 -45 -16 -12 5 -15 -5 -15 -54 0 -34 -4 -72 -10 -86 -7 -18 -6 -26
2 -26 6 0 17 -8 24 -17 9 -12 13 -14 14 -5 0 10 8 12 30 7 34 -7 38 0 13 27
-25 28 -31 133 -8 158 20 22 16 55 -6 54 -12 -1 -14 9 -8 56 4 32 10 63 13 69
10 16 43 13 73 -6 38 -25 55 -26 43 -3 -6 12 -6 21 -1 25 6 3 9 14 8 24 -1 15
-6 17 -21 11 -11 -4 -35 -3 -53 2 -22 6 -40 5 -54 -3 -13 -6 -19 -7 -15 -1 12
19 -15 24 -29 6 -10 -14 -14 -15 -15 -5 0 11 -13 13 -58 8 -32 -2 -66 0 -76 5
-15 8 -17 5 -14 -36z"/>
<path d="M11418 4402 c-41 -11 -43 -13 -28 -22 10 -6 17 -34 20 -87 4 -70 7
-78 25 -78 17 0 20 7 21 48 0 26 3 49 5 51 3 3 17 -20 33 -50 27 -52 56 -71
56 -38 0 9 -14 40 -31 68 -18 28 -33 64 -34 80 -2 24 -7 30 -28 30 -14 1 -31
0 -39 -2z"/>
<path d="M11078 4387 c-36 -16 -63 -53 -88 -121 -24 -62 -19 -81 23 -89 15 -3
13 -4 -5 -2 -25 1 -26 -1 -21 -29 23 -132 80 -185 182 -170 72 11 119 62 131
142 7 42 7 42 -24 42 -28 0 -31 -3 -32 -33 0 -17 -7 -45 -15 -61 -17 -37 -72
-71 -97 -60 -9 4 -23 6 -31 5 -7 -1 -10 2 -6 8 3 6 0 9 -7 6 -33 -13 -61 127
-36 178 14 29 -2 39 -22 15 -23 -28 -25 -20 -5 18 8 16 15 39 15 50 0 56 86
107 143 85 17 -7 25 -15 21 -23 -4 -7 -3 -8 4 -4 25 15 51 -84 31 -120 -11
-21 -10 -26 7 -39 10 -8 32 -13 47 -12 26 1 28 4 23 29 -3 15 -9 43 -12 61
-10 46 -49 104 -83 122 -35 18 -105 19 -143 2z"/>
<path d="M11636 4391 c-14 -5 -16 -10 -8 -15 16 -10 16 -148 0 -164 -9 -9 -9
-18 0 -37 7 -14 12 -40 11 -58 -1 -31 -1 -31 -25 18 -13 28 -24 45 -24 38 0
-6 -9 -14 -20 -18 -19 -6 -19 -7 4 -44 37 -58 47 -105 28 -125 -15 -15 -15
-16 0 -16 9 0 20 5 23 10 4 6 11 8 16 4 5 -3 7 -10 4 -15 -3 -5 1 -6 9 -3 9 3
13 10 10 15 -3 5 2 6 10 3 9 -3 16 -10 16 -16 0 -5 5 -6 10 -3 7 4 5 14 -5 28
-23 33 -20 132 5 164 11 14 20 32 20 39 0 19 -20 28 -33 15 -6 -6 -18 -11 -26
-10 -10 0 -7 4 7 9 19 8 22 16 22 72 0 54 4 66 28 92 15 17 17 23 6 13 -12
-10 -24 -14 -25 -9 -6 14 -41 21 -63 13z"/>
<path d="M12034 4384 c-28 -12 -65 -44 -50 -44 3 0 -3 -17 -14 -37 -11 -21
-20 -48 -20 -60 0 -12 -4 -25 -10 -28 -15 -9 -12 -47 6 -90 8 -21 13 -44 10
-52 -3 -8 -2 -12 2 -9 4 3 19 -13 32 -35 14 -21 39 -46 57 -54 46 -22 144 -11
128 15 -3 4 3 7 12 6 9 0 18 5 21 13 3 10 0 11 -9 5 -12 -7 -12 -5 0 9 7 9 17
15 21 12 4 -2 15 4 25 15 14 16 16 23 7 32 -9 9 -15 9 -24 0 -9 -9 -14 -7 -24
6 -9 12 -13 13 -14 4 0 -9 -7 -11 -20 -7 -18 6 -20 3 -14 -19 7 -30 -8 -54
-45 -67 -21 -8 -29 -5 -52 21 -43 46 -63 94 -50 119 16 30 13 36 -8 17 -15
-14 -24 -15 -38 -7 -16 9 -15 10 8 11 39 0 63 31 48 62 -9 20 -8 32 6 59 13
28 13 31 0 15 -8 -11 -15 -14 -15 -7 0 28 45 58 93 59 42 2 48 -1 57 -24 6
-14 15 -22 21 -19 6 4 8 13 5 20 -3 9 2 11 17 7 19 -5 20 -3 9 10 -9 11 -10
18 -2 23 5 3 10 13 10 22 0 12 -3 13 -13 5 -7 -6 -31 -9 -53 -6 -21 3 -50 6
-64 8 -14 2 -39 -2 -56 -10z"/>
<path d="M12424 4393 c-35 -6 -74 -57 -100 -127 -26 -72 -30 -111 -13 -121 6
-4 8 -14 4 -23 -3 -8 6 -32 21 -53 14 -21 23 -42 20 -47 -16 -27 89 -71 158
-67 49 3 95 49 115 115 7 25 20 62 28 82 12 28 13 41 5 51 -6 7 -18 39 -26 70
-21 81 -42 105 -96 112 -82 11 -95 12 -116 8z m124 -53 c12 -11 26 -39 32 -63
6 -23 12 -46 14 -52 2 -5 -3 -18 -12 -27 -13 -16 -13 -19 5 -35 10 -10 12 -13
4 -8 -12 8 -13 6 -8 -7 9 -24 -20 -101 -48 -128 -28 -27 -93 -30 -110 -6 -7 9
-15 12 -19 8 -4 -4 -6 -2 -5 3 2 6 -5 26 -16 45 -19 36 -28 93 -13 84 9 -6 10
-5 13 63 1 33 -2 50 -8 46 -6 -3 -7 -1 -3 6 4 6 12 9 17 6 5 -4 9 0 9 8 0 8 7
20 15 27 8 7 12 17 8 24 -3 6 -3 8 1 5 4 -4 26 -1 49 7 55 17 50 17 75 -6z"/>
<path d="M3566 3881 c-8 -12 14 -75 35 -102 18 -23 20 -23 33 -6 13 17 15 15
21 -22 4 -22 13 -45 21 -52 22 -18 17 -31 -31 -82 -51 -54 -57 -82 -20 -99 13
-6 26 -16 28 -22 2 -6 3 -3 2 7 -2 9 1 17 6 17 4 0 7 18 5 40 l-3 39 29 -15
c38 -20 74 -11 82 20 8 33 35 41 60 18 12 -11 28 -22 36 -26 8 -5 -3 8 -25 28
-66 59 -75 69 -75 83 0 7 -4 13 -10 13 -16 0 -23 -50 -12 -76 22 -48 -18 -72
-62 -39 -19 15 -19 15 -1 29 11 8 26 12 35 9 10 -3 11 -2 3 4 -14 10 -6 53 9
53 6 0 5 7 -2 15 -11 13 -9 20 9 38 28 31 27 37 -9 37 -16 0 -33 6 -37 14 -9
17 -79 69 -105 79 -10 3 -20 3 -22 -2z"/>
<path d="M4919 3633 c-1 -5 -1 -12 0 -16 1 -4 -3 -16 -9 -27 -8 -15 -4 -24 20
-49 30 -29 39 -51 21 -51 -6 0 -13 5 -16 10 -3 6 -23 18 -44 28 -40 20 -81 12
-81 -15 0 -8 -4 -12 -9 -9 -13 8 -42 -4 -36 -15 6 -8 -40 -25 -60 -21 -5 0
-18 -10 -29 -24 -21 -30 -11 -48 25 -42 l24 5 -25 10 c-24 10 -24 10 15 27 22
10 47 22 55 27 8 5 24 13 35 18 12 5 26 16 33 24 11 13 16 13 45 0 18 -9 39
-22 48 -29 13 -12 18 -12 35 0 18 14 18 15 1 33 -25 29 -21 35 13 18 16 -8 42
-15 57 -15 16 0 43 -4 61 -9 17 -5 32 -6 32 -1 0 12 -68 50 -91 50 -26 0 -99
37 -99 51 0 6 3 8 8 6 36 -20 102 -31 102 -17 0 4 -9 15 -20 25 -19 18 -20 17
-20 -4 l0 -23 -36 21 c-37 22 -53 26 -55 14z"/>
<path d="M3254 1852 c-126 -101 -179 -139 -191 -135 -7 3 -13 0 -13 -6 0 -6
-7 -11 -16 -11 -8 0 -12 5 -9 10 3 6 2 10 -4 10 -5 0 -13 -4 -16 -10 -3 -5 0
-10 7 -10 7 0 -3 -14 -22 -31 l-35 -30 38 27 c52 37 56 25 4 -16 -43 -35 -143
-124 -300 -268 -50 -45 -92 -91 -94 -103 l-3 -20 30 21 c38 27 53 51 16 27
-43 -29 -43 -12 1 17 40 28 59 33 47 14 -4 -7 -3 -8 5 -4 6 4 9 12 5 17 -7 11
23 49 39 49 5 0 3 -8 -4 -17 -9 -12 -3 -10 18 5 18 13 36 28 39 35 4 7 -2 3
-14 -7 -43 -38 -35 -4 9 37 104 98 130 118 141 111 6 -4 8 -3 5 3 -8 13 18 37
31 29 10 -6 46 30 56 57 3 10 12 17 19 14 14 -5 101 52 93 61 -7 7 23 42 37
42 5 0 3 -8 -4 -17 -9 -11 -3 -10 19 6 37 26 42 37 10 20 -28 -14 -17 -2 47
50 27 23 58 41 67 41 10 0 18 4 18 9 0 24 -21 17 -76 -27z"/>
</g>
</svg>
